<svg xmlns="http://www.w3.org/2000/svg" viewBox="0 0 280 240"><circle cx="140" cy="118" r="98" fill="#E6F0EF"/><rect x="96" y="34" width="88" height="168" rx="14" fill="#fff" stroke="#0E0F11" stroke-width="3"/><rect x="106" y="50" width="68" height="46" rx="8" fill="#0F766E"/><rect x="106" y="124" width="68" height="20" rx="6" fill="#E7F4EA"/><rect x="106" y="150" width="68" height="20" rx="6" fill="#F7F8FA"/><rect x="122" y="184" width="36" height="6" rx="3" fill="#E5E7EB"/><g fill="none" stroke="#6B7280" stroke-width="2.6" stroke-linecap="round" stroke-linejoin="round"><circle cx="46" cy="106" r="9"/><path d="M33 134c2-11 7-16 13-16s11 5 13 16"/><circle cx="46" cy="160" r="9"/><path d="M33 188c2-11 7-16 13-16s11 5 13 16"/></g><g fill="none" stroke="#0F766E" stroke-width="2.6" stroke-linecap="round" stroke-linejoin="round"><path d="M214 92l20-15 20 15"/><circle cx="234" cy="106" r="9"/><path d="M221 134c2-11 7-16 13-16s11 5 13 16"/></g><circle cx="234" cy="170" r="20" fill="#fff" stroke="#0F766E" stroke-width="3" stroke-dasharray="4 5"/></svg>
